# Blender 3.6.1
# www.blender.org
mtllib map.mtl
o Cube
v -10.000000 -10.000000 10.000000
v -10.000000 2.000000 10.000000
v -10.000000 -10.000000 -10.000000
v -10.000000 2.000000 -10.000000
v 10.000000 -10.000000 10.000000
v 10.000000 2.000000 10.000000
v 10.000000 -10.000000 -10.000000
v 10.000000 2.000000 -10.000000
v -10.000000 2.000000 10.000000
v -10.000000 2.000000 -10.000000
v 10.000000 2.000000 -10.000000
v 10.000000 2.000000 10.000000
v -20.000000 2.000000 20.000000
v -20.000000 2.000000 -20.000000
v 20.000000 2.000000 -20.000000
v 20.000000 2.000000 20.000000
vn 1.0000 -0.0000 -0.0000
vn -0.0000 -0.0000 1.0000
vn -1.0000 -0.0000 -0.0000
vn -0.0000 -0.0000 -1.0000
vn -0.0000 1.0000 -0.0000
vt 0.250000 0.269231
vt 0.750000 0.269231
vt 0.750000 0.569231
vt 0.250000 0.569231
vt 0.250000 0.750000
vt 0.250000 0.250000
vt 0.750000 0.250000
vt 0.750000 0.750000
vt 0.000000 0.000000
vt 1.000000 0.000000
vt 1.000000 1.000000
vt 0.000000 1.000000
s 0
usemtl rock
f 1/1/1 3/2/1 4/3/1 2/4/1
f 3/1/2 7/2/2 8/3/2 4/4/2
f 7/2/3 5/1/3 6/4/3 8/3/3
f 5/2/4 1/1/4 2/4/4 6/3/4
f 6/7/5 12/7/5 11/8/5 8/8/5
f 4/5/5 10/5/5 9/6/5 2/6/5
f 2/6/5 9/6/5 12/7/5 6/7/5
f 8/8/5 11/8/5 10/5/5 4/5/5
f 12/7/5 9/6/5 13/9/5 16/10/5
f 10/5/5 11/8/5 15/11/5 14/12/5
f 11/8/5 12/7/5 16/10/5 15/11/5
f 9/6/5 10/5/5 14/12/5 13/9/5
usemtl grass
f 3/5/5 1/6/5 5/7/5 7/8/5
o Cube.001
v -6.129125 -11.346380 -1.682069
v -6.129125 -9.346380 -1.682069
v -6.129125 -11.346380 -3.682069
v -6.129125 -9.346380 -3.682069
v -4.129125 -11.346380 -1.682069
v -4.129125 -9.346380 -1.682069
v -4.129125 -11.346380 -3.682069
v -4.129125 -9.346380 -3.682069
vn -1.0000 -0.0000 -0.0000
vn -0.0000 -0.0000 -1.0000
vn 1.0000 -0.0000 -0.0000
vn -0.0000 -0.0000 1.0000
vn -0.0000 -1.0000 -0.0000
vn -0.0000 1.0000 -0.0000
vt 0.375000 0.000000
vt 0.625000 0.000000
vt 0.625000 0.250000
vt 0.375000 0.250000
vt 0.625000 0.500000
vt 0.375000 0.500000
vt 0.625000 0.750000
vt 0.375000 0.750000
vt 0.625000 1.000000
vt 0.375000 1.000000
vt 0.125000 0.500000
vt 0.125000 0.750000
vt 0.875000 0.500000
vt 0.875000 0.750000
s 0
usemtl rock
f 17/13/6 18/14/6 20/15/6 19/16/6
f 19/16/7 20/15/7 24/17/7 23/18/7
f 23/18/8 24/17/8 22/19/8 21/20/8
f 21/20/9 22/19/9 18/21/9 17/22/9
f 19/23/10 23/18/10 21/20/10 17/24/10
f 24/17/11 20/25/11 18/26/11 22/19/11
o Cube.002
v -2.219043 -9.224639 -3.883871
v -2.219043 -7.224639 -3.883871
v -2.219043 -9.224639 -5.883871
v -2.219043 -7.224639 -5.883871
v -0.219043 -9.224639 -3.883871
v -0.219043 -7.224639 -3.883871
v -0.219043 -9.224639 -5.883871
v -0.219043 -7.224639 -5.883871
vn -1.0000 -0.0000 -0.0000
vn -0.0000 -0.0000 -1.0000
vn 1.0000 -0.0000 -0.0000
vn -0.0000 -0.0000 1.0000
vn -0.0000 -1.0000 -0.0000
vn -0.0000 1.0000 -0.0000
vt 0.375000 0.000000
vt 0.625000 0.000000
vt 0.625000 0.250000
vt 0.375000 0.250000
vt 0.625000 0.500000
vt 0.375000 0.500000
vt 0.625000 0.750000
vt 0.375000 0.750000
vt 0.625000 1.000000
vt 0.375000 1.000000
vt 0.125000 0.500000
vt 0.125000 0.750000
vt 0.875000 0.500000
vt 0.875000 0.750000
s 0
usemtl rock
f 25/27/12 26/28/12 28/29/12 27/30/12
f 27/30/13 28/29/13 32/31/13 31/32/13
f 31/32/14 32/31/14 30/33/14 29/34/14
f 29/34/15 30/33/15 26/35/15 25/36/15
f 27/37/16 31/32/16 29/34/16 25/38/16
f 32/31/17 28/39/17 26/40/17 30/33/17
o Cube.003
v 2.698653 -6.875317 -3.431227
v 2.698653 -4.875317 -3.431227
v 2.698653 -6.875317 -5.431227
v 2.698653 -4.875317 -5.431227
v 4.698653 -6.875317 -3.431227
v 4.698653 -4.875317 -3.431227
v 4.698653 -6.875317 -5.431227
v 4.698653 -4.875317 -5.431227
vn -1.0000 -0.0000 -0.0000
vn -0.0000 -0.0000 -1.0000
vn 1.0000 -0.0000 -0.0000
vn -0.0000 -0.0000 1.0000
vn -0.0000 -1.0000 -0.0000
vn -0.0000 1.0000 -0.0000
vt 0.375000 0.000000
vt 0.625000 0.000000
vt 0.625000 0.250000
vt 0.375000 0.250000
vt 0.625000 0.500000
vt 0.375000 0.500000
vt 0.625000 0.750000
vt 0.375000 0.750000
vt 0.625000 1.000000
vt 0.375000 1.000000
vt 0.125000 0.500000
vt 0.125000 0.750000
vt 0.875000 0.500000
vt 0.875000 0.750000
s 0
usemtl rock
f 33/41/18 34/42/18 36/43/18 35/44/18
f 35/44/19 36/43/19 40/45/19 39/46/19
f 39/46/20 40/45/20 38/47/20 37/48/20
f 37/48/21 38/47/21 34/49/21 33/50/21
f 35/51/22 39/46/22 37/48/22 33/52/22
f 40/45/23 36/53/23 34/54/23 38/47/23
o Cube.004
v 5.287871 -5.212910 1.128192
v 5.287871 -3.212910 1.128192
v 5.287871 -5.212910 -0.871808
v 5.287871 -3.212910 -0.871808
v 7.287871 -5.212910 1.128192
v 7.287871 -3.212910 1.128192
v 7.287871 -5.212910 -0.871808
v 7.287871 -3.212910 -0.871808
vn -1.0000 -0.0000 -0.0000
vn -0.0000 -0.0000 -1.0000
vn 1.0000 -0.0000 -0.0000
vn -0.0000 -0.0000 1.0000
vn -0.0000 -1.0000 -0.0000
vn -0.0000 1.0000 -0.0000
vt 0.375000 0.000000
vt 0.625000 0.000000
vt 0.625000 0.250000
vt 0.375000 0.250000
vt 0.625000 0.500000
vt 0.375000 0.500000
vt 0.625000 0.750000
vt 0.375000 0.750000
vt 0.625000 1.000000
vt 0.375000 1.000000
vt 0.125000 0.500000
vt 0.125000 0.750000
vt 0.875000 0.500000
vt 0.875000 0.750000
s 0
usemtl rock
f 41/55/24 42/56/24 44/57/24 43/58/24
f 43/58/25 44/57/25 48/59/25 47/60/25
f 47/60/26 48/59/26 46/61/26 45/62/26
f 45/62/27 46/61/27 42/63/27 41/64/27
f 43/65/28 47/60/28 45/62/28 41/66/28
f 48/59/29 44/67/29 42/68/29 46/61/29
o Cube.005
v 2.751164 -3.140491 6.393218
v 2.751164 -1.140491 6.393218
v 2.751164 -3.140491 4.393218
v 2.751164 -1.140491 4.393218
v 4.751163 -3.140491 6.393218
v 4.751163 -1.140491 6.393218
v 4.751163 -3.140491 4.393218
v 4.751163 -1.140491 4.393218
vn -1.0000 -0.0000 -0.0000
vn -0.0000 -0.0000 -1.0000
vn 1.0000 -0.0000 -0.0000
vn -0.0000 -0.0000 1.0000
vn -0.0000 -1.0000 -0.0000
vn -0.0000 1.0000 -0.0000
vt 0.375000 0.000000
vt 0.625000 0.000000
vt 0.625000 0.250000
vt 0.375000 0.250000
vt 0.625000 0.500000
vt 0.375000 0.500000
vt 0.625000 0.750000
vt 0.375000 0.750000
vt 0.625000 1.000000
vt 0.375000 1.000000
vt 0.125000 0.500000
vt 0.125000 0.750000
vt 0.875000 0.500000
vt 0.875000 0.750000
s 0
usemtl rock
f 49/69/30 50/70/30 52/71/30 51/72/30
f 51/72/31 52/71/31 56/73/31 55/74/31
f 55/74/32 56/73/32 54/75/32 53/76/32
f 53/76/33 54/75/33 50/77/33 49/78/33
f 51/79/34 55/74/34 53/76/34 49/80/34
f 56/73/35 52/81/35 50/82/35 54/75/35
o Cube.006
v -4.002726 -0.460516 6.971235
v -4.002726 1.539484 6.971235
v -4.002726 -0.460516 4.971235
v -4.002726 1.539484 4.971235
v -2.002726 -0.460516 6.971235
v -2.002726 1.539484 6.971235
v -2.002726 -0.460516 4.971235
v -2.002726 1.539484 4.971235
vn -1.0000 -0.0000 -0.0000
vn -0.0000 -0.0000 -1.0000
vn 1.0000 -0.0000 -0.0000
vn -0.0000 -0.0000 1.0000
vn -0.0000 -1.0000 -0.0000
vn -0.0000 1.0000 -0.0000
vt 0.375000 0.000000
vt 0.625000 0.000000
vt 0.625000 0.250000
vt 0.375000 0.250000
vt 0.625000 0.500000
vt 0.375000 0.500000
vt 0.625000 0.750000
vt 0.375000 0.750000
vt 0.625000 1.000000
vt 0.375000 1.000000
vt 0.125000 0.500000
vt 0.125000 0.750000
vt 0.875000 0.500000
vt 0.875000 0.750000
s 0
usemtl rock
f 57/83/36 58/84/36 60/85/36 59/86/36
f 59/86/37 60/85/37 64/87/37 63/88/37
f 63/88/38 64/87/38 62/89/38 61/90/38
f 61/90/39 62/89/39 58/91/39 57/92/39
f 59/93/40 63/88/40 61/90/40 57/94/40
f 64/87/41 60/95/41 58/96/41 62/89/41
o Cube.007
v -8.275410 3.266693 4.101785
v -8.275410 5.266693 4.101785
v -8.275410 3.266693 2.101785
v -8.275410 5.266693 2.101785
v -6.275410 3.266693 4.101785
v -6.275410 5.266693 4.101785
v -6.275410 3.266693 2.101785
v -6.275410 5.266693 2.101785
vn -1.0000 -0.0000 -0.0000
vn -0.0000 -0.0000 -1.0000
vn 1.0000 -0.0000 -0.0000
vn -0.0000 -0.0000 1.0000
vn -0.0000 -1.0000 -0.0000
vn -0.0000 1.0000 -0.0000
vt 0.375000 0.000000
vt 0.625000 0.000000
vt 0.625000 0.250000
vt 0.375000 0.250000
vt 0.625000 0.500000
vt 0.375000 0.500000
vt 0.625000 0.750000
vt 0.375000 0.750000
vt 0.625000 1.000000
vt 0.375000 1.000000
vt 0.125000 0.500000
vt 0.125000 0.750000
vt 0.875000 0.500000
vt 0.875000 0.750000
s 0
usemtl rock
f 65/97/42 66/98/42 68/99/42 67/100/42
f 67/100/43 68/99/43 72/101/43 71/102/43
f 71/102/44 72/101/44 70/103/44 69/104/44
f 69/104/45 70/103/45 66/105/45 65/106/45
f 67/107/46 71/102/46 69/104/46 65/108/46
f 72/101/47 68/109/47 66/110/47 70/103/47
